<svg width="111px" height="150px" viewBox="0 0 111 150" version="1.1" xmlns="http://www.w3.org/2000/svg" xmlns:xlink="http://www.w3.org/1999/xlink">
    <g id="Page-1" stroke="none" stroke-width="1" fill="none" fill-rule="evenodd">
        <g id="behind-the-work-logo" transform="translate(0.609297, 0.643396)" fill="#1D1D1B" fill-rule="nonzero">
            <path d="M109.269275,105.77407 C109.269275,94.8676133 105.14194,84.4479547 97.6475889,76.4351964 L95.7788751,74.4346349 L97.6475889,72.4393295 C105.14194,64.424954 109.269275,54.0056997 109.269275,43.0992432 C109.269275,19.3342868 89.8457797,0 65.9716505,0 L7.10542736e-15,0 L7.10542736e-15,23.8949848 L65.9716505,23.8949848 C76.6108505,23.8949848 85.2655828,32.5093671 85.2655828,43.0992432 C85.2655828,53.688715 76.6108505,62.3059275 65.9716505,62.3059275 L24.3347889,62.3059275 L24.1654228,35.094167 L0.157750154,35.1580491 L0.550541538,113.977261 L24.5516751,113.913379 L24.3823089,86.5690027 L65.9716505,86.5690027 C76.6108505,86.5690027 85.2655828,95.1850023 85.2655828,105.774474 C85.2655828,116.363946 76.6108505,124.978328 65.9716505,124.978328 L0.440148923,124.978328 L0.440148923,148.875092 L65.9716505,148.875092 C89.8457797,148.875092 109.269275,129.540643 109.269275,105.774474 L109.269275,105.77407 Z" id="Path"></path>
        </g>
    </g>
</svg>