<?xml version="1.0" encoding="UTF-8"?>
<svg width="399px" height="53px" viewBox="0 0 399 53" version="1.1" xmlns="http://www.w3.org/2000/svg" xmlns:xlink="http://www.w3.org/1999/xlink">
    <title>Group</title>
    <g id="Page-1" stroke="none" stroke-width="1" fill="none" fill-rule="evenodd">
        <g id="Group">
            <path d="M92.515,42 L92.515,36.555 L76.54,36.555 L76.54,28.23 L89.995,28.23 L89.995,23.19 L76.54,23.19 L76.54,15.495 L92.11,15.495 L92.11,10.05 L70.33,10.05 L70.33,42 L92.515,42 Z M101.096941,42 L108.701941,30.57 L116.261941,42 L122.966941,42 L111.941941,26.25 L123.326941,10.05 L116.621941,10.05 L108.701941,21.93 L100.736941,10.05 L93.986941,10.05 L105.371941,26.25 L94.346941,42 L101.096941,42 Z M132.808882,42 L132.808882,31.29 L140.368882,31.29 C141.838882,31.29 143.188882,30.99 144.418882,30.39 C145.648882,29.79 146.698882,28.995 147.568882,28.005 C148.438882,27.015 149.113882,25.8825 149.593882,24.6075 C150.073882,23.3325 150.313882,22.02 150.313882,20.67 C150.313882,19.38 150.058882,18.0975 149.548882,16.8225 C149.038882,15.5475 148.333882,14.4075 147.433882,13.4025 C146.533882,12.3975 145.461382,11.5875 144.216382,10.9725 C142.971382,10.3575 141.613882,10.05 140.143882,10.05 L140.143882,10.05 L126.598882,10.05 L126.598882,42 L132.808882,42 Z M140.008882,25.845 L132.808882,25.845 L132.808882,15.495 L139.738882,15.495 C140.278882,15.495 140.811382,15.6075 141.336382,15.8325 C141.861382,16.0575 142.318882,16.395 142.708882,16.845 C143.098882,17.295 143.413882,17.8425 143.653882,18.4875 C143.893882,19.1325 144.013882,19.86 144.013882,20.67 C144.013882,22.26 143.631382,23.52 142.866382,24.45 C142.101382,25.38 141.148882,25.845 140.008882,25.845 L140.008882,25.845 Z M155.970823,42 L158.895823,34.035 L170.055823,34.035 L173.025823,42 L179.415823,42 L167.265823,10.05 L161.775823,10.05 L149.580823,42 L155.970823,42 Z M168.930823,29.67 L159.930823,29.67 L164.520823,17.115 L168.930823,29.67 Z M189.212764,42 L189.212764,21.525 L205.637764,42 L210.677764,42 L210.677764,10.095 L204.467764,10.095 L204.467764,31.02 L187.817764,10.05 L183.002764,10.05 L183.002764,42 L189.212764,42 Z M229.024705,42 C231.424705,42 233.592205,41.6175 235.527205,40.8525 C237.462205,40.0875 239.119705,39.0075 240.499705,37.6125 C241.879705,36.2175 242.937205,34.5375 243.672205,32.5725 C244.407205,30.6075 244.774705,28.41 244.774705,25.98 C244.774705,23.79 244.444705,21.7275 243.784705,19.7925 C243.124705,17.8575 242.134705,16.17 240.814705,14.73 C239.494705,13.29 237.852205,12.15 235.887205,11.31 C233.922205,10.47 231.634705,10.05 229.024705,10.05 L229.024705,10.05 L217.414705,10.05 L217.414705,42 L229.024705,42 Z M229.024705,36.555 L223.624705,36.555 L223.624705,15.495 L229.024705,15.495 C230.524705,15.495 231.867205,15.75 233.052205,16.26 C234.237205,16.77 235.234705,17.49 236.044705,18.42 C236.854705,19.35 237.469705,20.46 237.889705,21.75 C238.309705,23.04 238.519705,24.45 238.519705,25.98 C238.519705,27.48 238.309705,28.875 237.889705,30.165 C237.469705,31.455 236.862205,32.5725 236.067205,33.5175 C235.272205,34.4625 234.282205,35.205 233.097205,35.745 C231.912205,36.285 230.554705,36.555 229.024705,36.555 L229.024705,36.555 Z M266.798587,42 L266.798587,10.05 L260.588587,10.05 L260.588587,42 L266.798587,42 Z M279.745528,42 L279.745528,20.85 L287.980528,36.6 L291.355528,36.6 L299.590528,20.85 L299.590528,42 L305.800528,42 L305.800528,10.05 L299.185528,10.05 L289.645528,28.23 L280.195528,10.05 L273.535528,10.05 L273.535528,42 L279.745528,42 Z M315.822469,42 L318.747469,34.035 L329.907469,34.035 L332.877469,42 L339.267469,42 L327.117469,10.05 L321.627469,10.05 L309.432469,42 L315.822469,42 Z M328.782469,29.67 L319.782469,29.67 L324.372469,17.115 L328.782469,29.67 Z M354.95941,42.225 C358.34941,42.225 361.31941,40.95 363.86941,38.4 L363.86941,38.4 L363.86941,42 L368.99941,42 L368.99941,25.575 L357.43441,25.575 L357.43441,30.12 L363.86941,30.12 L363.86941,32.37 C361.37941,35.28 358.58941,36.735 355.49941,36.735 C354.14941,36.735 352.89691,36.4575 351.74191,35.9025 C350.58691,35.3475 349.58941,34.59 348.74941,33.63 C347.90941,32.67 347.24941,31.5375 346.76941,30.2325 C346.28941,28.9275 346.04941,27.525 346.04941,26.025 C346.04941,24.585 346.26691,23.22 346.70191,21.93 C347.13691,20.64 347.75191,19.5 348.54691,18.51 C349.34191,17.52 350.30191,16.74 351.42691,16.17 C352.55191,15.6 353.78941,15.315 355.13941,15.315 C356.84941,15.315 358.43191,15.735 359.88691,16.575 C361.34191,17.415 362.47441,18.63 363.28441,20.22 L363.28441,20.22 L367.91941,16.8 C366.83941,14.67 365.22691,12.975 363.08191,11.715 C360.93691,10.455 358.36441,9.825 355.36441,9.825 C353.14441,9.825 351.08941,10.2525 349.19941,11.1075 C347.30941,11.9625 345.66691,13.1175 344.27191,14.5725 C342.87691,16.0275 341.78191,17.7225 340.98691,19.6575 C340.19191,21.5925 339.79441,23.655 339.79441,25.845 C339.79441,28.155 340.19191,30.3075 340.98691,32.3025 C341.78191,34.2975 342.86191,36.03 344.22691,37.5 C345.59191,38.97 347.19691,40.125 349.04191,40.965 C350.88691,41.805 352.85941,42.225 354.95941,42.225 Z M396.571351,42 L396.571351,36.555 L380.596351,36.555 L380.596351,28.23 L394.051351,28.23 L394.051351,23.19 L380.596351,23.19 L380.596351,15.495 L396.166351,15.495 L396.166351,10.05 L374.386351,10.05 L374.386351,42 L396.571351,42 Z" id="EXPANDIMAGE" fill="#FFFFFF" fill-rule="nonzero"></path>
            <g id="expand-arrows-alt-solid" transform="translate(0.000000, 5.000000)"></g>
            <path d="M41,33.5535687 L41,43.8035653 C41.001456,44.3865414 40.7705171,44.9460618 40.3582895,45.3582895 C39.9460618,45.7705171 39.3865414,46.001456 38.8035653,46 L28.5535687,46 C26.5960024,46 25.6167617,43.6296814 26.9977657,42.2477622 L30.310711,38.9348169 L20.5,29.1241059 L10.6865435,38.9439687 L14.0022343,42.2477622 C15.3832383,43.6296814 14.4039976,46 12.4464313,46 L2.19643474,46 C1.61345861,46.001456 1.0539382,45.7705171 0.64171053,45.3582895 C0.229482858,44.9460618 -0.00145602491,44.3865414 0,43.8035653 L0,33.5535687 C0,31.5950872 2.36940343,30.6158465 3.75223779,31.9977657 L7.06426792,35.310711 L16.8813851,25.5 L7.06335274,15.6801372 L3.75223779,19.0022343 C2.37031861,20.3841535 0,19.4049128 0,17.4464313 L0,7.19643474 C-0.00145602491,6.61345861 0.229482858,6.0539382 0.64171053,5.64171053 C1.0539382,5.22948286 1.61345861,4.99854398 2.19643474,5 L12.4464313,5 C14.4039976,5 15.3832383,7.37031861 14.0022343,8.75223779 L10.689289,12.0651831 L20.5,21.8758941 L30.3134565,12.0560313 L26.9977657,8.75223779 C25.6167617,7.37031861 26.5960024,5 28.5535687,5 L38.8035653,5 C39.3865414,4.99854398 39.9460618,5.22948286 40.3582895,5.64171053 C40.7705171,6.0539382 41.001456,6.61345861 41,7.19643474 L41,17.4464313 C41,19.4049128 38.6305966,20.3841535 37.2477622,19.0022343 L33.9357321,15.689289 L24.1186149,25.5 L33.9366473,35.3198628 L37.2477622,32.0069175 C38.6296814,30.6158465 41,31.5950872 41,33.5535687 Z" id="Path" fill="#FFFFFF" fill-rule="nonzero"></path>
        </g>
    </g>
</svg>