<?xml version="1.0" encoding="UTF-8"?>
<svg width="399px" height="53px" viewBox="0 0 399 53" version="1.1" xmlns="http://www.w3.org/2000/svg" xmlns:xlink="http://www.w3.org/1999/xlink">
    <title>Group</title>
    <g id="Page-1" stroke="none" stroke-width="1" fill="none" fill-rule="evenodd">
        <g id="Group">
            <text id="EXPAND-IMAGE" font-family="Raleway-Bold, Raleway" font-size="45" font-weight="bold" letter-spacing="0.076941" fill="#FFFFFF">
                <tspan x="67" y="42">EXPAND IMAGE</tspan>
            </text>
            <g id="expand-arrows-alt-solid" transform="translate(0.000000, 5.000000)"></g>
            <path d="M41,33.5535687 L41,43.8035653 C41.001456,44.3865414 40.7705171,44.9460618 40.3582895,45.3582895 C39.9460618,45.7705171 39.3865414,46.001456 38.8035653,46 L28.5535687,46 C26.5960024,46 25.6167617,43.6296814 26.9977657,42.2477622 L30.310711,38.9348169 L20.5,29.1241059 L10.6865435,38.9439687 L14.0022343,42.2477622 C15.3832383,43.6296814 14.4039976,46 12.4464313,46 L2.19643474,46 C1.61345861,46.001456 1.0539382,45.7705171 0.64171053,45.3582895 C0.229482858,44.9460618 -0.00145602491,44.3865414 0,43.8035653 L0,33.5535687 C0,31.5950872 2.36940343,30.6158465 3.75223779,31.9977657 L7.06426792,35.310711 L16.8813851,25.5 L7.06335274,15.6801372 L3.75223779,19.0022343 C2.37031861,20.3841535 0,19.4049128 0,17.4464313 L0,7.19643474 C-0.00145602491,6.61345861 0.229482858,6.0539382 0.64171053,5.64171053 C1.0539382,5.22948286 1.61345861,4.99854398 2.19643474,5 L12.4464313,5 C14.4039976,5 15.3832383,7.37031861 14.0022343,8.75223779 L10.689289,12.0651831 L20.5,21.8758941 L30.3134565,12.0560313 L26.9977657,8.75223779 C25.6167617,7.37031861 26.5960024,5 28.5535687,5 L38.8035653,5 C39.3865414,4.99854398 39.9460618,5.22948286 40.3582895,5.64171053 C40.7705171,6.0539382 41.001456,6.61345861 41,7.19643474 L41,17.4464313 C41,19.4049128 38.6305966,20.3841535 37.2477622,19.0022343 L33.9357321,15.689289 L24.1186149,25.5 L33.9366473,35.3198628 L37.2477622,32.0069175 C38.6296814,30.6158465 41,31.5950872 41,33.5535687 Z" id="Path" fill="#FFFFFF" fill-rule="nonzero"></path>
        </g>
    </g>
</svg>