<svg width="528px" height="217px" viewBox="0 0 528 217" version="1.1" xmlns="http://www.w3.org/2000/svg" xmlns:xlink="http://www.w3.org/1999/xlink">
    <title>Group</title>
    <g id="Page-1" stroke="none" stroke-width="1" fill="none" fill-rule="evenodd">
        <g id="Group" fill="#FFFFFF" fill-rule="nonzero">
            <g id="behind-the-work">
                <path d="M139.878572,139.417466 C139.878572,128.511009 135.751237,118.091351 128.256886,110.078592 L126.388172,108.078031 L128.256886,106.082726 C135.751237,98.06835 139.878572,87.6490957 139.878572,76.7426392 C139.878572,52.9776828 120.455077,33.643396 96.5809477,33.643396 L30.6092972,33.643396 L30.6092972,57.5383808 L96.5809477,57.5383808 C107.220148,57.5383808 115.87488,66.1527631 115.87488,76.7426392 C115.87488,87.332111 107.220148,95.9493235 96.5809477,95.9493235 L54.9440862,95.9493235 L54.77472,68.737563 L30.7670474,68.8014451 L31.1598388,147.620657 L55.1609723,147.556775 L54.9916062,120.212399 L96.5809477,120.212399 C107.220148,120.212399 115.87488,128.828398 115.87488,139.41787 C115.87488,150.007342 107.220148,158.621724 96.5809477,158.621724 L31.0494462,158.621724 L31.0494462,182.518488 L96.5809477,182.518488 C120.455077,182.518488 139.878572,163.184039 139.878572,139.41787 L139.878572,139.417466 Z" id="Path"></path>
                <path d="M12.1041969,33.5802416 C5.42958646,33.5802416 0,38.98665 0,45.6308349 C0,52.2749795 5.42958646,57.6815091 12.1041969,57.6815091 C18.7788074,57.6815091 24.2095311,52.2749795 24.2095311,45.6308349 C24.2095311,38.98665 18.7785637,33.5802416 12.1041969,33.5802416 Z" id="Path"></path>
                <path d="M12.1041969,158.651239 C5.42958646,158.651239 0,164.057365 0,170.701509 C0,177.346058 5.42958646,182.752183 12.1041969,182.752183 C18.7788074,182.752183 24.2095311,177.346058 24.2095311,170.701509 C24.2095311,164.057365 18.7785637,158.651239 12.1041969,158.651239 Z" id="Path"></path>
                <path d="M12.1041969,96.1163065 C5.42958646,96.1163065 0,101.522432 0,108.166576 C0,114.811125 5.42958646,120.217251 12.1041969,120.217251 C18.7788074,120.217251 24.2095311,114.811125 24.2095311,108.166576 C24.2095311,101.522432 18.7785637,96.1163065 12.1041969,96.1163065 Z" id="Path"></path>
                <polygon id="Path" points="182.062117 0 172.891975 0 172.891975 216.33194 182.062117 216.33194"></polygon>
                <path d="M301.621218,84.9118683 C301.621218,73.1409816 293.086302,64.2641975 281.769231,64.2641975 C269.752357,64.2641975 261.029391,72.947718 261.029391,84.9118683 C261.029391,97.0680692 269.888825,105.557922 282.575852,105.557922 C289.754215,105.557922 295.536628,102.848592 299.341071,97.7129551 L291.921452,93.4530691 C289.854942,95.8725032 286.464369,97.3025732 282.737908,97.3025732 C276.445772,97.3025732 272.203495,94.4687139 270.796172,89.3225646 L270.595938,88.5960066 L301.307668,88.5960066 C301.522929,87.2633771 301.620812,86.1098601 301.620812,84.9118683 L301.621218,84.9118683 Z M270.462314,81.709676 L270.628025,81.0033339 C271.910252,75.5612244 275.970572,72.4394913 281.769231,72.4394913 C287.194634,72.4394913 291.14976,75.6433007 292.346289,81.009803 L292.502658,81.7092717 L270.46272,81.7092717 L270.462314,81.709676 Z" id="Shape"></path>
                <path d="M351.606978,48.3227789 C348.461723,48.3227789 345.805477,51.0042105 345.805477,54.1789092 C345.805477,57.309133 348.461723,59.9537718 351.606978,59.9537718 C354.794474,59.9537718 357.488492,57.309133 357.488492,54.1789092 C357.488492,51.0042105 354.794474,48.3227789 351.606978,48.3227789 Z" id="Path"></path>
                <polygon id="Path" points="356.278154 64.7162241 347.016628 64.7162241 347.016628 104.674893 356.278154 104.674893"></polygon>
                <path d="M443.564677,105.45846 L443.674338,49.2009558 L434.414031,49.2009558 L434.300308,67.7348563 L433.427077,67.2201605 C430.190031,65.3093574 426.469662,64.2989687 422.668062,64.2989687 C411.039877,64.2989687 401.931065,73.3686122 401.931065,84.9462352 C401.931065,96.5238583 411.039877,105.592693 422.668062,105.592693 C426.4656,105.592693 430.185969,104.5819 433.427077,102.670693 L434.300308,102.156401 L434.300308,105.45846 L443.564677,105.45846 Z M422.668062,96.6148296 C416.124923,96.6148296 411.190154,91.5984661 411.190154,84.9466395 C411.190154,78.294813 416.124923,73.2784494 422.668062,73.2784494 C429.3696,73.2784494 434.231262,78.1856473 434.231262,84.9466395 C434.231262,91.7076318 429.3696,96.6148296 422.668062,96.6148296 Z" id="Shape"></path>
                <path d="M398.998228,83.1017401 C398.998228,72.6222426 390.752492,64.4133905 380.226609,64.4133905 C376.789735,64.4133905 373.422314,65.327956 370.487852,67.0584336 L369.697477,67.5238027 L369.697477,64.6353606 L361.314462,64.6353606 L361.314462,104.537425 L369.697477,104.537425 L369.697477,98.6808905 L369.761649,83.1017401 C369.761649,76.981995 374.162732,72.5397619 380.226203,72.5397619 C386.149145,72.5397619 390.616025,77.0806484 390.616025,83.1017401 L390.616025,104.674893 L398.936898,104.674893 L398.997822,83.1017401 L398.998228,83.1017401 Z" id="Path"></path>
                <path d="M217.546966,104.715729 L241.970215,104.715729 C250.8528,104.715729 258.080308,97.5213088 258.080308,88.6784873 C258.080308,84.6219728 256.54464,80.7449752 253.755988,77.7615186 L253.005822,76.9613748 L253.755988,76.1604224 C256.54464,73.1777745 258.080308,69.3007768 258.080308,65.2442623 C258.080308,56.4018452 250.8528,49.2082335 241.970215,49.2082335 L217.386535,49.2082335 L217.547372,104.715729 L217.546966,104.715729 Z M241.970215,95.9392156 L226.402338,95.9392156 L226.341009,81.4185676 L241.970215,81.4185676 C245.992763,81.4185676 249.264332,84.675747 249.264332,88.6788916 C249.264332,92.6820362 245.992357,95.9392156 241.970215,95.9392156 L241.970215,95.9392156 Z M241.970215,57.9843427 C245.992357,57.9843427 249.263926,61.2415221 249.263926,65.2446667 C249.263926,69.247407 245.991951,72.5049906 241.970215,72.5049906 L226.320702,72.5049906 L226.260591,57.9843427 L241.969809,57.9843427 L241.970215,57.9843427 Z" id="Shape"></path>
                <polygon id="Path" points="257.914191 111.686562 217.465329 111.686562 217.465329 120.580732 232.933292 120.580732 232.44144 166.733944 241.870302 166.733944 242.361748 120.580732 257.914191 120.580732"></polygon>
                <path d="M342.937625,146.960407 C342.937625,134.959464 334.235778,125.910037 322.697354,125.910037 C310.445723,125.910037 301.554203,134.76337 301.554203,146.960407 C301.554203,159.353943 310.587065,168.009565 323.520628,168.009565 C330.843988,168.009565 336.742154,165.243227 340.620111,160.001254 L333.040874,155.649588 C330.936997,158.116328 327.483065,159.575508 323.686338,159.575508 C317.279262,159.575508 312.961846,156.690705 311.527311,151.451563 L311.327483,150.725005 L342.616763,150.725005 C342.838117,149.362456 342.937625,148.184276 342.937625,146.960003 L342.937625,146.960407 Z M311.190609,143.686247 L311.355914,142.979905 C312.660886,137.439546 316.793502,134.262826 322.697354,134.262826 C328.22064,134.262826 332.246437,137.52324 333.465711,142.985969 L333.62208,143.686247 L311.190609,143.686247 L311.190609,143.686247 Z" id="Shape"></path>
                <path d="M342.134252,104.582304 L342.134252,83.9297818 C341.908431,72.2987889 334.479877,64.4772726 323.647348,64.4772726 C320.420455,64.4772726 317.326375,65.2725646 314.703434,66.7774332 L313.836702,67.274339 L313.949612,49.2486653 L305.207151,49.2486653 L305.09424,104.582304 L313.836702,104.582304 L313.836702,84.3150961 C313.836702,77.1974961 317.41248,73.114701 323.647348,73.114701 C329.882622,73.114701 333.456775,77.1974961 333.456775,84.3150961 L333.456775,104.582304 L342.134658,104.582304 L342.134252,104.582304 Z" id="Path"></path>
                <path d="M298.599434,166.856857 L298.597809,145.236803 C298.371988,133.60581 290.943434,125.78389 280.110905,125.78389 C276.882794,125.78389 273.789932,126.579586 271.168209,128.083646 L270.301477,128.580956 L270.301477,111.635214 L261.559015,111.635214 L261.559015,166.856857 L270.301477,166.856857 L270.301477,145.622118 C270.301477,138.504518 273.877255,134.421722 280.110905,134.421722 C286.344148,134.421722 289.921551,138.504518 289.921551,145.622118 L289.921551,166.856857 L298.599434,166.856857 L298.599434,166.856857 Z" id="Path"></path>
                <polygon id="Path" points="413.586462 110.974964 402.288074 154.538525 389.893071 110.974964 381.190006 110.974964 368.877858 154.545802 357.578658 110.974964 347.016628 110.974964 362.601969 166.385019 374.471815 166.385019 385.539102 127.530136 396.692492 166.385019 408.562338 166.385019 424.146462 110.974964"></polygon>
                <path d="M439.365046,126.002625 C427.671877,126.002625 418.513108,135.121191 418.513108,146.761079 C418.513108,158.400967 427.671877,167.517511 439.365046,167.517511 C451.102892,167.517511 460.298215,158.400158 460.298215,146.761079 C460.298215,135.122 451.102892,126.002625 439.365046,126.002625 Z M439.365046,158.487087 C432.789415,158.487087 427.830277,153.44606 427.830277,146.761079 C427.830277,140.076503 432.789415,135.035476 439.365046,135.035476 C446.095015,135.035476 450.981046,139.966529 450.981046,146.761079 C450.981046,153.556034 446.095015,158.487087 439.365046,158.487087 Z" id="Shape"></path>
                <polygon id="Path" points="498.582277 110.974964 489.265108 110.974964 489.265108 166.385019 498.582277 166.385019"></polygon>
                <path d="M483.505846,134.827657 L486.369231,134.827657 L486.369231,125.59103 L483.505846,125.59103 C472.564062,125.59103 463.661169,134.84383 463.661169,146.216059 L463.661169,166.095123 L472.941785,166.095123 L472.941785,146.216059 C472.941785,139.936609 477.6816,134.827657 483.505846,134.827657 Z" id="Path"></path>
                <polygon id="Path" points="527.386708 125.857475 516.006277 125.857475 500.028185 145.770502 516.623631 166.41413 528 166.41413 511.404554 145.770502"></polygon>
            </g>
        </g>
    </g>
</svg>